<svg xmlns="http://www.w3.org/2000/svg" viewBox="0 0 48 48">
  <rect width="48" height="48" rx="8" fill="#D42C21"/>
  <g transform="translate(8, 8) scale(0.00457)" fill="#ffffff">
    <path d="M3288 6925 c-1 -1 -23 -5 -48 -9 -87 -11 -116 -17 -199 -42 -196 -59 -374 -166 -517 -310 -116 -116 -137 -165 -57 -132 267 109 411 155 573 181 52 9 113 19 135 23 61 10 343 12 410 4 33 -5 83 -11 110 -15 28 -3 70 -11 95 -17 25 -5 59 -12 75 -15 64 -10 304 -97 417 -150 65 -31 121 -53 124 -50 21 20 -102 168 -221 267 -156 128 -372 224 -580 255 -78 12 -307 19 -317 10z"/>
    <path d="M3337 6124 c-1 -1 -42 -4 -92 -8 -110 -7 -104 -6 -305 -51 -48 -11 -188 -64 -270 -102 -189 -88 -348 -202 -495 -354 -204 -213 -341 -449 -259 -449 9 0 59 34 111 76 182 146 404 267 628 342 116 39 277 79 360 89 21 2 42 6 45 8 11 7 217 19 313 18 292 -2 553 -56 807 -168 198 -87 415 -241 610 -432 68 -68 130 -123 138 -123 7 0 15 7 19 16 20 52 -125 335 -264 515 -154 201 -319 333 -558 449 -196 96 -368 145 -580 166 -68 7 -203 12 -208 8z"/>
    <path d="M3248 5105 c-2 -1 -39 -5 -83 -9 -129 -10 -196 -24 -331 -67 -400 -128 -718 -398 -891 -758 -44 -92 -90 -212 -99 -261 -3 -14 -10 -43 -16 -65 -5 -22 -12 -51 -14 -65 -2 -14 -6 -34 -9 -45 -9 -42 -18 -174 -18 -265 -1 -324 89 -624 272 -905 263 -404 662 -660 1161 -746 83 -14 387 -18 494 -6 37 4 111 17 165 28 53 12 101 22 106 23 59 11 188 63 320 127 234 116 475 334 627 569 158 245 275 578 281 802 2 104 -40 105 -81 2 -95 -238 -207 -409 -382 -584 -151 -151 -262 -231 -435 -315 -224 -109 -430 -155 -674 -150 -160 3 -199 8 -312 36 -481 120 -833 496 -904 966 -17 115 -12 327 10 418 77 322 297 563 618 677 89 32 96 33 247 32 125 -1 170 -5 235 -22 230 -62 393 -207 447 -400 19 -68 25 -180 12 -249 -10 -57 -53 -142 -80 -159 -38 -25 -54 -12 -50 41 16 187 -129 331 -343 340 -257 10 -448 -154 -489 -420 -48 -307 135 -565 460 -646 374 -94 784 109 968 480 76 152 100 276 95 491 -4 195 -30 305 -109 465 -193 388 -599 622 -1108 639 -48 2 -89 2 -90 1z"/>
    <path d="M1898 1994 c-13 -12 6 -79 44 -157 121 -248 258 -415 503 -615 51 -41 210 -138 300 -181 113 -55 343 -133 390 -132 2 0 18 -4 35 -9 111 -32 447 -34 615 -4 361 64 718 256 949 513 17 19 38 42 46 50 8 9 40 50 70 91 114 153 157 238 139 272 -15 27 -30 22 -95 -30 -231 -185 -392 -281 -625 -372 -99 -38 -338 -103 -424 -114 -119 -16 -195 -20 -335 -20 -233 2 -451 39 -666 115 -78 27 -125 47 -274 117 -155 72 -371 229 -541 392 -84 81 -115 101 -131 84z"/>
    <path d="M2480 583 c0 -9 12 -32 27 -52 32 -43 145 -156 191 -191 18 -14 43 -33 55 -43 40 -34 153 -97 233 -131 404 -169 891 -107 1246 159 92 69 222 201 231 234 9 37 -8 32 -248 -70 -110 -46 -373 -109 -525 -126 -202 -21 -437 -7 -655 41 -125 27 -282 81 -431 150 -111 51 -124 54 -124 29z"/>
  </g>
</svg>
